<svg xmlns="http://www.w3.org/2000/svg" viewBox="0 0 280 31">
    <path d="M0 18.3L2.7 15c1.9 1.6 3.9 2.6 6.3 2.6 1.9 0 3-.7 3-2v-.1c0-1.2-.7-1.8-4.2-2.7-4.2-1.1-7-2.2-7-6.4C.8 2.6 3.9.1 8.2.1c3.1 0 5.7 1 7.8 2.7l-2.4 3.5C11.7 5 9.9 4.2 8.1 4.2S5.4 4.9 5.4 6c0 1.4.9 1.8 4.5 2.8 4.3 1.1 6.7 2.6 6.7 6.3v.1c0 4.2-3.2 6.5-7.7 6.5-3.2 0-6.4-1.1-8.9-3.4zm26.2-7.4c0-6 4.5-10.9 11-10.9 4 0 6.3 1.3 8.3 3.2l-2.9 3.4c-1.6-1.5-3.3-2.4-5.4-2.4-3.5 0-6.1 2.9-6.1 6.5v.1c0 3.6 2.5 6.6 6.1 6.6 2.4 0 3.9-1 5.5-2.5l2.9 3c-2.2 2.3-4.6 3.7-8.6 3.7-6.2.1-10.8-4.6-10.8-10.7zM56 .4h4.6v8.3h8.5V.4h4.6v21h-4.6V13h-8.5v8.4H56V.4zm29.2 12V.4h4.6v11.9c0 3.4 1.7 5.2 4.5 5.2s4.5-1.7 4.5-5V.5h4.6v11.9c0 6.4-3.6 9.5-9.2 9.5-5.5-.2-9-3.3-9-9.5zm30.1-12h5l5.5 8.9 5.5-8.9h5v21h-4.6V7.7l-5.9 9h-.1l-5.9-8.9v13.6h-4.5V.4zM155 .2h4.3l9 21.2h-4.8l-1.9-4.7h-8.9l-1.9 4.7H146l9-21.2zm4.9 12.4l-2.8-6.8-2.8 6.8h5.6zm16-1.7c0-6 4.5-10.9 11-10.9 4 0 6.3 1.3 8.3 3.2l-2.9 3.4c-1.6-1.5-3.3-2.4-5.4-2.4-3.5 0-6.1 2.9-6.1 6.5v.1c0 3.6 2.5 6.6 6.1 6.6 2.4 0 3.9-1 5.5-2.5l2.9 3c-2.2 2.3-4.6 3.7-8.6 3.7-6.2.1-10.8-4.6-10.8-10.7zM205.4.4h4.6v8.3h8.5V.4h4.6v21h-4.6V13H210v8.4h-4.6V.4zm29.6 0h15.9v4.1h-11.3v4.3h9.9v4.1h-9.9v4.4H251v4.1h-16V.4zm26.8 0h9.6c2.7 0 4.8.7 6.1 2.1 1.2 1.2 1.8 2.8 1.8 4.8v.1c0 3.4-1.8 5.5-4.5 6.5l5.1 7.5h-5.4l-4.5-6.7h-3.6v6.7h-4.6V.4zm9.3 10.2c2.2 0 3.5-1.2 3.5-3v-.1c0-2-1.4-3-3.6-3h-4.6v6l4.7.1zM136.3 26.3h-21v4.2h21v-4.2z" fill="#fff"/>
</svg>