<svg xmlns="http://www.w3.org/2000/svg" xmlns:xlink="http://www.w3.org/1999/xlink" width="100" height="1200" viewBox="0 0 100 1200"><svg viewBox="0 0 100 100" width="100" height="100" id="smr-icon_arrow_down_black" y="0"><path d="M0 23.2v28.6l49.6 25.1L100 51.3V23.2c-16.8 8.5-33.5 16.9-50.3 25.4-16.6-8.5-33.1-17-49.7-25.4z"></path></svg><svg viewBox="0 0 100 100" width="100" height="100" id="smr-icon_arrow_down_white" y="100"><path fill="#fff" d="M0 23.2v28.6l49.6 25.1L100 51.3V23.2c-16.8 8.5-33.5 16.9-50.3 25.4-16.6-8.5-33.1-17-49.7-25.4z"></path></svg><svg viewBox="0 0 100 100" width="100" height="100" id="smr-icon_arrow_left_black" y="200"><path d="M76.8 0H48.2l-25 49.6L48.7 100h28.1c-8.5-16.8-16.9-33.5-25.4-50.3 8.5-16.6 17-33.1 25.4-49.7z"></path></svg><svg viewBox="0 0 100 100" width="100" height="100" id="smr-icon_arrow_left_white" y="300"><path fill="#fff" d="M76.8 0H48.2l-25 49.6L48.7 100h28.1c-8.5-16.8-16.9-33.5-25.4-50.3 8.5-16.6 17-33.1 25.4-49.7z"></path></svg><svg viewBox="0 0 100 100" width="100" height="100" id="smr-icon_arrow_right_black" y="400"><path d="M48.6 49.7c-8.5 16.8-17 33.5-25.4 50.3h28.1l25.5-50.4L51.8 0H23.2c8.4 16.6 16.9 33.1 25.4 49.7z"></path></svg><svg viewBox="0 0 100 100" width="100" height="100" id="smr-icon_arrow_right_white" y="500"><path fill="#fff" d="M48.6 49.7c-8.5 16.8-17 33.5-25.4 50.3h28.1l25.5-50.4L51.8 0H23.2c8.4 16.6 16.9 33.1 25.4 49.7z"></path></svg><svg viewBox="0 0 100 100" width="100" height="100" id="smr-icon_arrow_up_black" y="600"><path d="M100 76.8V48.2l-49.6-25L0 48.7v28.1c16.8-8.5 33.5-16.9 50.3-25.4 16.6 8.5 33.1 17 49.7 25.4z"></path></svg><svg viewBox="0 0 100 100" width="100" height="100" id="smr-icon_arrow_up_white" y="700"><path fill="#fff" d="M100 76.8V48.2l-49.6-25L0 48.7v28.1c16.8-8.5 33.5-16.9 50.3-25.4 16.6 8.5 33.1 17 49.7 25.4z"></path></svg><svg viewBox="0 0 100 100" width="100" height="100" id="smr-icon_close_black" y="800"><path d="M90.1 80.6L59.4 50l30.7-30.6-9.5-9.5L50 40.6 19.4 9.9l-9.5 9.5L40.6 50 9.9 80.6l9.5 9.5L50 59.4l30.6 30.7"></path></svg><svg viewBox="0 0 100 100" width="100" height="100" id="smr-icon_close_white" y="900"><path fill="#fff" d="M90.1 80.6L59.4 50l30.7-30.6-9.5-9.5L50 40.6 19.4 9.9l-9.5 9.5L40.6 50 9.9 80.6l9.5 9.5L50 59.4l30.6 30.7"></path></svg><svg viewBox="0 0 100 100" width="100" height="100" id="smr-icon_plus_black" y="1000"><path d="M90.1 80.6L59.4 50l30.7-30.6-9.5-9.5L50 40.6 19.4 9.9l-9.5 9.5L40.6 50 9.9 80.6l9.5 9.5L50 59.4l30.6 30.7"></path></svg><svg viewBox="0 0 100 100" width="100" height="100" id="smr-icon_plus_white" y="1100"><path fill="#fff" d="M90.1 80.6L59.4 50l30.7-30.6-9.5-9.5L50 40.6 19.4 9.9l-9.5 9.5L40.6 50 9.9 80.6l9.5 9.5L50 59.4l30.6 30.7"></path></svg></svg>