<svg id="schumacher" xmlns="http://www.w3.org/2000/svg" viewBox="0 0 424 49">
	<symbol id="smr-logo">
		<path id="S" d="M0 28.4l4.1-4.9c2.8 2.3 5.8 3.8 9.4 3.8 2.8 0 4.5-1.1 4.5-3v-.1c0-1.8-1.1-2.7-6.3-4-6.3-1.6-10.4-3.4-10.4-9.6v-.1c0-5.7 4.6-9.5 11-9.5 4.6 0 8.5 1.4 11.7 4l-3.6 5.2c-2.8-1.9-5.5-3.1-8.2-3.1s-4 1.2-4 2.7v.2c0 2.1 1.4 2.7 6.8 4.1 6.4 1.7 10 4 10 9.5v.1c0 6.3-4.8 9.8-11.6 9.8-4.8 0-9.6-1.7-13.4-5.1z"/>
		<path id="C" d="M39.7 17.4c0-9 6.8-16.4 16.4-16.4 5.9 0 9.5 2 12.4 4.9L64.1 11c-2.4-2.2-4.9-3.6-8.1-3.6-5.3 0-9.1 4.4-9.1 9.8v.1c0 5.4 3.7 9.9 9.1 9.9 3.6 0 5.8-1.4 8.3-3.7l4.4 4.5c-3.2 3.5-6.8 5.6-12.9 5.6-9.2 0-16.1-7.2-16.1-16.2z"/>
		<path id="H" d="M84.4 1.5h6.9V14h12.8V1.5h6.9V33h-6.9V20.4H91.3V33h-6.9V1.5z"/>
		<path id="U" d="M128.2 19.5v-18h6.9v17.8c0 5.1 2.6 7.8 6.8 7.8s6.8-2.6 6.8-7.6v-18h6.9v17.8c0 9.5-5.4 14.2-13.8 14.2s-13.6-4.7-13.6-14z"/>
		<path id="M" d="M172.9 1.5h7.5l8.3 13.3L197 1.5h7.5V33h-6.9V12.5L188.7 26h-.2l-8.8-13.3V33h-6.8V1.5z"/>
		<path id="A" d="M232.9 1.3h6.4L252.8 33h-7.2l-2.9-7.1h-13.3l-2.9 7.1h-7.1l13.5-31.7zm7.3 18.6L236 9.6l-4.2 10.2h8.4z"/>
		<path id="C2" d="M264.3 17.4c0-9 6.8-16.4 16.4-16.4 5.9 0 9.5 2 12.4 4.9l-4.4 5.1c-2.4-2.2-4.9-3.6-8.1-3.6-5.3 0-9.1 4.4-9.1 9.8v.1c0 5.4 3.7 9.9 9.1 9.9 3.6 0 5.8-1.4 8.3-3.7l4.4 4.5c-3.2 3.5-6.8 5.6-12.9 5.6-9.2 0-16.1-7.2-16.1-16.2z"/>
		<path id="H2" d="M309.1 1.5h6.9V14h12.8V1.5h6.9V33h-6.9V20.4H316V33h-6.9V1.5z"/>
		<path id="E" d="M353.4 1.5h23.8v6.2h-16.9v6.4h14.8v6.2h-14.8v6.6h17.1V33h-24V1.5z"/>
		<path id="R" d="M393.7 1.5h14.4c4 0 7.1 1.1 9.2 3.2 1.8 1.8 2.7 4.2 2.7 7.2v.1c0 5.1-2.7 8.3-6.8 9.8l7.7 11.2h-8.1L406 23h-5.4v10h-6.9V1.5zm13.9 15.3c3.4 0 5.3-1.8 5.3-4.5v-.1c0-3-2.1-4.5-5.4-4.5h-6.9v9h7z"/>
		<path id="balken" d="M172.9 40.5h31.5v6.4h-31.5v-6.4z"/ transform="translate(0, 0)">
	</symbol>
</svg>
